<svg xmlns="http://www.w3.org/2000/svg" width="1200" height="760" viewBox="0 0 1200 760">
  <rect width="1200" height="760" fill="#eef1f4"/>
  <rect x="95" y="70" width="1010" height="620" rx="18" fill="#ffffff" stroke="#d9d9d9" stroke-width="2"/>
  <rect x="95" y="70" width="1010" height="64" rx="18" fill="#ffffff"/>
  <line x1="95" y1="134" x2="1105" y2="134" stroke="#e3e3e3"/>
  <text x="125" y="110" font-family="Segoe UI, Arial" font-size="23" font-weight="700" fill="#FA641F">TAA</text>
  <text x="190" y="110" font-family="Segoe UI, Arial" font-size="18" fill="#252525">Outils TAA Export</text>

  <rect x="130" y="175" width="84" height="84" rx="14" fill="#fff0e8"/>
  <path d="M158 194 h30 l18 18 v31 h-48 z M188 194 v18 h18" fill="none" stroke="#FA641F" stroke-width="4"/>
  <text x="245" y="214" font-family="Segoe UI, Arial" font-size="36" font-weight="700" fill="#162033">Export PDF en cours</text>
  <text x="245" y="247" font-family="Segoe UI, Arial" font-size="20" fill="#666666">Génération et assemblage des PDF…</text>

  <rect x="130" y="305" width="790" height="28" rx="14" fill="#e3e6ea"/>
  <rect x="130" y="305" width="537" height="28" rx="14" fill="#FD8B5A"/>
  <text x="130" y="362" font-family="Segoe UI, Arial" font-size="16" fill="#333333">0 %</text>
  <text x="888" y="362" font-family="Segoe UI, Arial" font-size="16" fill="#333333">100 %</text>
  <text x="955" y="337" font-family="Segoe UI, Arial" font-size="44" font-weight="700" fill="#FA641F">68 %</text>

  <rect x="130" y="395" width="940" height="150" rx="14" fill="#f8f8f8"/>
  <line x1="650" y1="420" x2="650" y2="520" stroke="#d9d9d9"/>
  <text x="165" y="438" font-family="Segoe UI, Arial" font-size="16" fill="#666666">Carnet :</text>
  <text x="165" y="465" font-family="Segoe UI, Arial" font-size="20" font-weight="600" fill="#252525">Plans de vente - Bâtiment A</text>
  <text x="165" y="503" font-family="Segoe UI, Arial" font-size="16" fill="#666666">Fichier / feuille en cours :</text>
  <text x="165" y="530" font-family="Segoe UI, Arial" font-size="20" font-weight="600" fill="#252525">A-103 - Niveau 1</text>

  <text x="690" y="438" font-family="Segoe UI, Arial" font-size="16" fill="#666666">Traitement :</text>
  <text x="690" y="465" font-family="Segoe UI, Arial" font-size="20" font-weight="600" fill="#252525">17 / 25 unités</text>
  <text x="690" y="503" font-family="Segoe UI, Arial" font-size="16" fill="#666666">Étape :</text>
  <text x="690" y="530" font-family="Segoe UI, Arial" font-size="20" font-weight="600" fill="#252525">Export PDF</text>

  <line x1="185" y1="600" x2="950" y2="600" stroke="#b7bcc2" stroke-width="2"/>
  <circle cx="185" cy="600" r="22" fill="#FD8B5A"/>
  <text x="178" y="608" font-family="Segoe UI, Arial" font-size="18" font-weight="700" fill="#ffffff">✓</text>
  <circle cx="440" cy="600" r="22" fill="#ffffff" stroke="#FA641F" stroke-width="4"/>
  <circle cx="440" cy="600" r="9" fill="#FA641F"/>
  <circle cx="695" cy="600" r="22" fill="#ffffff" stroke="#aab0b7" stroke-width="2"/>
  <text x="689" y="607" font-family="Segoe UI, Arial" font-size="16" font-weight="600" fill="#555555">3</text>
  <circle cx="950" cy="600" r="22" fill="#ffffff" stroke="#aab0b7" stroke-width="2"/>
  <text x="944" y="607" font-family="Segoe UI, Arial" font-size="16" font-weight="600" fill="#555555">4</text>

  <text x="145" y="645" font-family="Segoe UI, Arial" font-size="16" fill="#252525">Préparation</text>
  <text x="375" y="645" font-family="Segoe UI, Arial" font-size="16" font-weight="600" fill="#FA641F">Export des feuilles</text>
  <text x="655" y="645" font-family="Segoe UI, Arial" font-size="16" fill="#252525">Assemblage</text>
  <text x="915" y="645" font-family="Segoe UI, Arial" font-size="16" fill="#252525">Finalisation</text>
</svg>